<svg id="Layer_1" data-name="Layer 1" xmlns="http://www.w3.org/2000/svg" viewBox="0 0 81.78 73.9"><defs><style>.cls-1{fill:#616161;}.cls-2{fill:#f37726;}</style></defs><title>Artboard 4</title><path class="cls-1" d="M14.66,41.7V38.09l4.67-.79V4.44l-4.67-.8V0h12.2L40.3,31.66h.17L53.47,0H66.05V3.64l-4.67.8V37.3l4.67.79V41.7h-15V38.09L56,37.3V7.7l-.15,0L42.3,40.22H38.55l-14-32.49-.14,0,.18,17.43V37.3l5.05.79V41.7Z"/><path class="cls-2" d="M37.88,73.9q0-8.82-10.13-8.82H19.33q-7.83,0-12.53-3.79T0,50.25l4.8-1.63q2.7,8.46,13.78,8.75h9.17q9.63,0,13.13,7.53Q44.3,57.37,54,57.37h8.45q11.76,0,14.55-8.72l4.78,1.6Q79.71,57.61,75,61.33T62.63,65.08H53.88q-10,0-10,8.82"/></svg>
