<svg id="Layer_1" data-name="Layer 1" xmlns="http://www.w3.org/2000/svg" viewBox="0 0 215.62 110"><defs><style>.cls-1{fill:#616161;}.cls-2{fill:#f37726;}</style></defs><title>Artboard 1</title><path class="cls-1" d="M27,63.43V59.74l4.78-.83V25.32L27,24.49V20.77H39.47L53.2,53.15h.19l13.3-32.38H79.55v3.72l-4.79.83V58.91l4.79.83v3.69H64.22V59.74l5-.83V28.65l-.14,0L55.26,61.9H51.42L37.09,28.68l-.14,0,.21,17.84V58.91l5.15.83v3.69ZM91.35,76.22a13.26,13.26,0,0,1-1.75-.15c-.72-.11-1.28-.21-1.67-.31l.59-4.54a12.21,12.21,0,0,0,1.36.1c.59,0,1,0,1.22,0a3.69,3.69,0,0,0,3-1.4,15.13,15.13,0,0,0,2.15-3.83l1.38-3.34L86.41,35.91,83,35.44V31.72H96.3v3.72l-3.83.6,6.17,15.84,1.5,4.14h.18l7.32-20-4-.6V31.72h13v3.72l-3.28.47L100.88,68.29a19,19,0,0,1-2.13,4.09,9.13,9.13,0,0,1-3,2.81A8.6,8.6,0,0,1,91.35,76.22ZM135,64a24.79,24.79,0,0,1-7.5-1.14,24.21,24.21,0,0,1-6.87-3.52V50.27h4.48l1,6.7a17,17,0,0,0,4.13,1.83,17.26,17.26,0,0,0,4.81.64,12.24,12.24,0,0,0,5-.89,7.05,7.05,0,0,0,3.11-2.47,6.84,6.84,0,0,0,.16-7.15,7.79,7.79,0,0,0-3.1-2.63,24.72,24.72,0,0,0-5.87-2,27.61,27.61,0,0,1-7.42-2.74,12.83,12.83,0,0,1-4.61-4.15,10.17,10.17,0,0,1-1.57-5.61,10.43,10.43,0,0,1,1.77-6,12.13,12.13,0,0,1,4.94-4.16,16.82,16.82,0,0,1,7.39-1.53,21.34,21.34,0,0,1,7.92,1.36,19.44,19.44,0,0,1,5.67,3.3v8.51h-4.48l-1-6.09a11.47,11.47,0,0,0-3.29-1.75,14.48,14.48,0,0,0-4.86-.7,10.17,10.17,0,0,0-4.33.86,7,7,0,0,0-2.94,2.42,6.34,6.34,0,0,0-1,3.65,5.57,5.57,0,0,0,.95,3.24,7.85,7.85,0,0,0,3.09,2.42,31.77,31.77,0,0,0,5.77,1.94Q143,41,146.44,44.26a10.61,10.61,0,0,1,3.49,8.06,10.35,10.35,0,0,1-1.86,6.09,12.28,12.28,0,0,1-5.21,4.14A19.32,19.32,0,0,1,135,64Zm30.47-.61V59.74l4.79-.83V25.13h-9.68l-.84,5.92h-4.34V20.77h35.45V31.05h-4.28l-.88-5.92H176V58.91l4.78.83v3.69Z"/><path class="cls-2" d="M24,83q-8.25-2.33-11.75-7.4A21.21,21.21,0,0,1,8.8,63.3V54.63q0-4.74-2.16-7.38T0,44.61V38.38q4.49,0,6.64-2.6T8.8,28.39v-8.7a21.14,21.14,0,0,1,3.48-12.3Q15.77,2.34,24,0l1.69,5a10.7,10.7,0,0,0-6.63,5.32,20.45,20.45,0,0,0-2,9.42v8.7a16.58,16.58,0,0,1-1.79,7.84A12.45,12.45,0,0,1,10,41.52a12.5,12.5,0,0,1,5.36,5.34,16.49,16.49,0,0,1,1.79,7.77V63.3a20.15,20.15,0,0,0,2,9.37A10.85,10.85,0,0,0,25.72,78Z"/><path class="cls-2" d="M192,82.46l-1.67-4.93a10.72,10.72,0,0,0,6.45-5.23,19.44,19.44,0,0,0,2-9.22V54.53a15.61,15.61,0,0,1,1.88-7.78,12.22,12.22,0,0,1,5.78-5.14,11.72,11.72,0,0,1-5.78-5,15.83,15.83,0,0,1-1.88-7.87V20.13a19.74,19.74,0,0,0-2-9.27,10.52,10.52,0,0,0-6.45-5.23L192,.75Q200,3,203.48,8a20.81,20.81,0,0,1,3.43,12.11v8.58q0,4.7,2.13,7.26t6.58,2.56v6.13q-4.45,0-6.58,2.61t-2.13,7.26v8.55a20.8,20.8,0,0,1-3.43,12.08Q200,80.16,192,82.46Z"/><path class="cls-1" d="M12.46,105.84l-4.19-11H8.19c.08.88.12,1.91.12,3.1v7.87H7V93.47H9.14l3.92,10.2h.08l3.94-10.2h2.16v12.37H17.8v-8c0-.91,0-1.91.11-3h-.06l-4.24,11Zm15.66,0-.29-1.31h-.06a3.92,3.92,0,0,1-1.39,1.17,4.13,4.13,0,0,1-1.72.32,3.1,3.1,0,0,1-2.15-.71,2.62,2.62,0,0,1-.79-2c0-1.87,1.5-2.86,4.49-3l1.58,0V99.7a2.31,2.31,0,0,0-.47-1.59,1.91,1.91,0,0,0-1.5-.53,6.2,6.2,0,0,0-2.63.7l-.42-1.06a6.86,6.86,0,0,1,3.13-.8,3.57,3.57,0,0,1,2.47.74,3.07,3.07,0,0,1,.79,2.36v6.32Zm-3.18-1a2.87,2.87,0,0,0,2.07-.72,2.66,2.66,0,0,0,.75-2v-.84l-1.41.06a5.25,5.25,0,0,0-2.42.53,1.57,1.57,0,0,0-.74,1.43,1.47,1.47,0,0,0,.46,1.17A2,2,0,0,0,24.94,104.86Zm11.34-8.45a6.08,6.08,0,0,1,1.11.09l-.18,1.31a4.66,4.66,0,0,0-1-.14,2.52,2.52,0,0,0-1.94.92,3.35,3.35,0,0,0-.79,2.28v5H32.05V96.58h1.16l.17,1.7h.06a4.1,4.1,0,0,1,1.23-1.39A2.89,2.89,0,0,1,36.28,96.41Zm4.23,4.68a14.94,14.94,0,0,1,1.11-1.34l3-3.17h1.66l-3.75,3.94,4,5.32h-1.7l-3.26-4.37-1.07.9v3.47H39.12V92.67h1.39v7c0,.31,0,.79-.06,1.43ZM52.14,106a4.29,4.29,0,0,1-3.25-1.25,4.89,4.89,0,0,1-1.19-3.49,5.33,5.33,0,0,1,1.11-3.55,3.68,3.68,0,0,1,3-1.32,3.5,3.5,0,0,1,2.75,1.14,4.37,4.37,0,0,1,1,3v.89H49.16a3.7,3.7,0,0,0,.82,2.47,2.87,2.87,0,0,0,2.21.84,7.64,7.64,0,0,0,3-.62v1.25a7.61,7.61,0,0,1-1.43.46A7.15,7.15,0,0,1,52.14,106Zm-.37-8.44a2.32,2.32,0,0,0-1.8.73,3.34,3.34,0,0,0-.77,2h4.85a3.05,3.05,0,0,0-.6-2A2.07,2.07,0,0,0,51.77,97.58Zm12.48,7h-.08a3.27,3.27,0,0,1-2.9,1.43,3.48,3.48,0,0,1-2.83-1.24,5.46,5.46,0,0,1-1-3.55,5.55,5.55,0,0,1,1-3.56,3.44,3.44,0,0,1,2.83-1.26,3.36,3.36,0,0,1,2.89,1.36h.11l0-.66,0-.66V92.67h1.41v13.17H64.44Zm-2.81.25a2.54,2.54,0,0,0,2.09-.78,4,4,0,0,0,.64-2.53v-.3a4.63,4.63,0,0,0-.65-2.81,2.51,2.51,0,0,0-2.1-.84,2.14,2.14,0,0,0-1.89,1,4.76,4.76,0,0,0-.65,2.7,4.64,4.64,0,0,0,.65,2.69A2.23,2.23,0,0,0,61.44,104.84Zm8.52,1h-1.4V92.67H70Zm1.51-9.26H73l2,5.28a18.81,18.81,0,0,1,.83,2.61h.08q.11-.42.45-1.47t2.3-6.42h1.52l-4,10.54a5.11,5.11,0,0,1-1.39,2.22,2.91,2.91,0,0,1-1.94.66,5.93,5.93,0,0,1-1.26-.14v-1.13a4,4,0,0,0,1,.11,2.13,2.13,0,0,0,2.06-1.62l.52-1.33Zm21.91,6a3.07,3.07,0,0,1-1.19,2.56A5.2,5.2,0,0,1,89,106a8,8,0,0,1-3.39-.57v-1.39a9,9,0,0,0,1.66.5,8.35,8.35,0,0,0,1.78.19,3.46,3.46,0,0,0,2.15-.55,1.78,1.78,0,0,0,.74-1.51,1.86,1.86,0,0,0-.27-1,2.19,2.19,0,0,0-.86-.77,13.3,13.3,0,0,0-1.82-.78,5.73,5.73,0,0,1-2.47-1.47,3.22,3.22,0,0,1-.74-2.2,2.75,2.75,0,0,1,1.07-2.28,4.46,4.46,0,0,1,2.84-.84,8.54,8.54,0,0,1,3.41.67l-.46,1.25a7.62,7.62,0,0,0-3-.64,2.77,2.77,0,0,0-1.78.5,1.59,1.59,0,0,0-.64,1.36,2.13,2.13,0,0,0,.23,1.06,2.25,2.25,0,0,0,.8.75A10.53,10.53,0,0,0,90,99a6.8,6.8,0,0,1,2.68,1.48A3,3,0,0,1,93.38,102.55Zm5.3,2.31a5.55,5.55,0,0,0,.72,0,5.43,5.43,0,0,0,.55-.12v1.08a2.37,2.37,0,0,1-.67.17,4.81,4.81,0,0,1-.8.08c-1.79,0-2.69-1-2.69-2.85V97.66H94.47V97l1.32-.57.6-2h.81v2.16h2.69v1.08H97.2v5.46a1.93,1.93,0,0,0,.39,1.29A1.4,1.4,0,0,0,98.68,104.86ZM106,96.41a6.23,6.23,0,0,1,1.11.09L107,97.81a4.66,4.66,0,0,0-1-.14,2.5,2.5,0,0,0-1.93.92,3.31,3.31,0,0,0-.8,2.28v5H101.8V96.58H103l.17,1.7h.06a4.12,4.12,0,0,1,1.24-1.39A2.87,2.87,0,0,1,106,96.41Zm4.16.17v6a2.44,2.44,0,0,0,.52,1.69,2.06,2.06,0,0,0,1.61.56,2.61,2.61,0,0,0,2.12-.79,4,4,0,0,0,.68-2.61V96.58h1.4v9.26h-1.15l-.21-1.25h-.08a2.79,2.79,0,0,1-1.18,1.07,4.09,4.09,0,0,1-1.75.36,3.55,3.55,0,0,1-2.53-.8,3.41,3.41,0,0,1-.85-2.58V96.58Zm13,9.44a4,4,0,0,1-3.11-1.24,5.09,5.09,0,0,1-1.1-3.51,5.25,5.25,0,0,1,1.12-3.6,4,4,0,0,1,3.19-1.26,6.1,6.1,0,0,1,1.34.14,4,4,0,0,1,1,.34l-.42,1.19a6.2,6.2,0,0,0-1-.31,4.12,4.12,0,0,0-1-.13q-2.84,0-2.83,3.61a4.28,4.28,0,0,0,.69,2.62,2.4,2.4,0,0,0,2,.91,6.24,6.24,0,0,0,2.38-.5v1.25A5.09,5.09,0,0,1,123.21,106Zm7.55-1.16a5.55,5.55,0,0,0,.72,0,5.43,5.43,0,0,0,.55-.12v1.08a2.36,2.36,0,0,1-.68.17,4.7,4.7,0,0,1-.79.08c-1.79,0-2.69-1-2.69-2.85V97.66h-1.33V97l1.33-.57.59-2h.82v2.16H132v1.08h-2.68v5.46a1.93,1.93,0,0,0,.39,1.29A1.39,1.39,0,0,0,130.76,104.86Zm4.45-8.28v6a2.44,2.44,0,0,0,.51,1.69,2.07,2.07,0,0,0,1.61.56,2.64,2.64,0,0,0,2.13-.79,4.09,4.09,0,0,0,.67-2.61V96.58h1.4v9.26h-1.15l-.21-1.25h-.07a2.81,2.81,0,0,1-1.19,1.07,4.05,4.05,0,0,1-1.75.36,3.55,3.55,0,0,1-2.53-.8,3.45,3.45,0,0,1-.85-2.58V96.58Zm13.54-.17a6.23,6.23,0,0,1,1.11.09l-.19,1.31a4.58,4.58,0,0,0-1-.14,2.5,2.5,0,0,0-1.93.92,3.31,3.31,0,0,0-.8,2.28v5h-1.41V96.58h1.16l.17,1.7h.06a4.12,4.12,0,0,1,1.24-1.39A2.87,2.87,0,0,1,148.75,96.41Zm6.76,9.61a4.27,4.27,0,0,1-3.25-1.25,4.89,4.89,0,0,1-1.19-3.49,5.33,5.33,0,0,1,1.11-3.55,3.68,3.68,0,0,1,3-1.32,3.5,3.5,0,0,1,2.75,1.14,4.37,4.37,0,0,1,1,3v.89h-6.39a3.75,3.75,0,0,0,.83,2.47,2.87,2.87,0,0,0,2.21.84,7.59,7.59,0,0,0,3-.62v1.25a7.53,7.53,0,0,1-1.42.46A7.28,7.28,0,0,1,155.51,106Zm-.38-8.44a2.29,2.29,0,0,0-1.79.73,3.27,3.27,0,0,0-.77,2h4.84a3.05,3.05,0,0,0-.59-2A2.08,2.08,0,0,0,155.13,97.58Zm12.49,7h-.08a3.27,3.27,0,0,1-2.9,1.43,3.48,3.48,0,0,1-2.83-1.24,5.46,5.46,0,0,1-1-3.55,5.55,5.55,0,0,1,1-3.56,3.44,3.44,0,0,1,2.83-1.26,3.36,3.36,0,0,1,2.89,1.36h.11l0-.66-.05-.66V92.67H169v13.17h-1.14Zm-2.81.25a2.55,2.55,0,0,0,2.09-.78,4,4,0,0,0,.64-2.53v-.3a4.7,4.7,0,0,0-.65-2.81,2.51,2.51,0,0,0-2.1-.84,2.14,2.14,0,0,0-1.89,1,4.69,4.69,0,0,0-.65,2.7,4.57,4.57,0,0,0,.65,2.69A2.21,2.21,0,0,0,164.81,104.84Zm15.65,1H179V94.75H175.1V93.47h9.27v1.28h-3.91Zm9.48.18a4.27,4.27,0,0,1-3.25-1.25,4.85,4.85,0,0,1-1.19-3.49,5.33,5.33,0,0,1,1.11-3.55,3.68,3.68,0,0,1,3-1.32,3.51,3.51,0,0,1,2.75,1.14,4.42,4.42,0,0,1,1,3v.89H187a3.7,3.7,0,0,0,.83,2.47,2.86,2.86,0,0,0,2.2.84,7.64,7.64,0,0,0,3-.62v1.25a7.53,7.53,0,0,1-1.42.46A7.28,7.28,0,0,1,189.94,106Zm-.38-8.44a2.32,2.32,0,0,0-1.8.73,3.33,3.33,0,0,0-.76,2h4.84a3.11,3.11,0,0,0-.59-2A2.09,2.09,0,0,0,189.56,97.58Zm8.41,3.51-3.22-4.51h1.6l2.45,3.54,2.44-3.54h1.57l-3.21,4.51,3.39,4.75h-1.6l-2.59-3.75-2.63,3.75h-1.59Zm9.84,3.77a5.55,5.55,0,0,0,.72,0,5.43,5.43,0,0,0,.55-.12v1.08a2.37,2.37,0,0,1-.67.17,4.81,4.81,0,0,1-.8.08c-1.79,0-2.69-1-2.69-2.85V97.66H203.6V97l1.32-.57.6-2h.81v2.16H209v1.08h-2.69v5.46a1.93,1.93,0,0,0,.39,1.29A1.4,1.4,0,0,0,207.81,104.86Z"/></svg>
